<?xml version="1.0" standalone="no"?>
<!DOCTYPE svg PUBLIC "-//W3C//DTD SVG 20010904//EN"
 "http://www.w3.org/TR/2001/REC-SVG-20010904/DTD/svg10.dtd">
<svg version="1.0" xmlns="http://www.w3.org/2000/svg"
 width="512.000000pt" height="512.000000pt" viewBox="0 0 512.000000 512.000000"
 preserveAspectRatio="xMidYMid meet">
<metadata>
Created by potrace 1.14, written by Peter Selinger 2001-2017
</metadata>
<g transform="translate(0.000000,512.000000) scale(0.100000,-0.100000)"
fill="#000000" stroke="none">
<path d="M2965 5111 c-72 -18 -140 -73 -171 -140 -10 -20 -19 -70 -22 -113 -4
-76 -5 -78 -31 -78 -95 0 -335 -25 -447 -45 -443 -82 -827 -275 -1181 -592
l-92 -83 -144 0 c-130 0 -145 -2 -165 -20 -29 -27 -29 -80 -1 -106 20 -18 48
-19 584 -24 535 -5 564 -6 584 -24 11 -10 25 -35 31 -55 12 -44 13 -1206 1
-1270 -15 -76 -33 -85 -175 -92 -109 -5 -129 -9 -167 -31 -71 -42 -92 -91 -99
-225 l-5 -112 -227 164 c-125 90 -242 172 -260 182 -30 16 -69 18 -388 21
-195 1 -365 5 -378 7 -12 3 -31 20 -42 38 -19 31 -20 53 -20 675 0 692 -1 683
52 709 12 7 71 14 129 15 89 2 111 6 128 22 29 27 28 76 -3 105 -23 22 -31 23
-148 19 -101 -3 -130 -8 -163 -25 -51 -27 -91 -67 -119 -118 -21 -40 -21 -43
-21 -725 l0 -685 30 -53 c27 -50 78 -96 130 -117 11 -4 56 -11 100 -14 l80 -6
2 -50 c20 -399 155 -821 371 -1160 181 -283 459 -558 750 -742 108 -68 315
-170 443 -217 294 -108 665 -161 972 -138 518 39 961 213 1352 529 151 123
238 215 238 252 0 42 -28 71 -70 71 -29 0 -48 -14 -138 -99 -57 -54 -142 -127
-189 -162 -85 -64 -236 -162 -267 -174 -12 -4 -49 35 -142 151 -171 212 -204
261 -188 277 9 9 109 13 385 17 l373 5 49 30 c30 19 60 49 79 79 l30 49 3 684
2 683 47 68 c104 151 147 295 147 487 0 149 -19 236 -79 355 l-35 70 77 0 c56
0 90 6 121 20 l44 20 44 -95 c24 -52 64 -155 89 -228 214 -641 127 -1336 -239
-1917 -36 -58 -66 -113 -66 -123 0 -27 45 -67 75 -67 36 0 69 36 140 150 173
279 288 610 336 960 19 140 16 468 -5 615 -37 246 -112 494 -216 714 l-51 106
-2 700 c-2 695 -2 700 -23 740 -28 51 -68 91 -119 119 -40 21 -42 21 -865 23
-454 1 -838 -2 -855 -6z m1682 -174 l28 -27 0 -661 0 -661 -33 -29 -32 -29
-355 0 c-286 0 -362 -3 -390 -14 -19 -8 -138 -89 -264 -180 -126 -91 -232
-166 -235 -166 -3 0 -6 47 -6 104 0 115 -8 147 -48 190 -48 51 -95 66 -214 66
-105 0 -109 1 -140 29 l-33 29 -5 180 c-4 131 -9 183 -19 196 -20 24 -86 21
-112 -5 -20 -20 -20 -29 -17 -212 3 -188 4 -193 30 -238 15 -26 42 -59 59 -73
l31 -26 -12 -68 c-34 -197 -191 -357 -385 -393 -117 -22 -268 12 -379 85 l-56
38 0 340 c0 328 1 341 21 369 43 61 63 137 63 249 1 154 -43 291 -130 413 -20
27 -32 53 -27 58 13 12 216 67 333 89 116 22 291 40 388 40 l62 0 0 -200 c0
-187 1 -201 20 -220 13 -13 33 -20 59 -20 71 0 71 0 71 368 0 273 2 328 16
353 31 60 3 59 881 56 l803 -2 27 -28z m-2717 -639 c38 -70 70 -193 70 -265
l0 -54 -32 24 c-71 53 -64 52 -403 57 l-320 5 70 58 c101 85 276 199 401 263
l109 55 37 -43 c21 -24 52 -69 68 -100z m1264 -934 c13 -12 16 -40 16 -135 0
-160 23 -212 102 -228 58 -13 93 4 257 123 178 129 176 129 146 11 -22 -84
-66 -160 -141 -246 -76 -85 -110 -147 -126 -225 l-11 -54 -432 0 c-481 0 -499
-2 -572 -65 -49 -42 -79 -101 -89 -173 -7 -51 -8 -54 -57 -78 -115 -59 -208
-179 -257 -331 -35 -110 -37 -146 -10 -173 52 -52 107 -10 145 110 15 47 34
98 43 114 16 33 110 136 123 136 5 0 9 -229 9 -509 0 -279 3 -529 6 -555 10
-68 59 -144 118 -181 46 -28 57 -30 174 -35 157 -6 152 -1 152 -169 0 -145 11
-175 75 -205 63 -30 91 -19 283 120 97 69 181 128 188 131 6 2 33 -26 60 -64
27 -37 95 -125 151 -195 57 -70 103 -132 103 -137 0 -20 -277 -115 -435 -150
-203 -45 -488 -62 -690 -42 -688 69 -1283 428 -1666 1005 -43 65 -79 124 -79
131 0 16 137 117 203 149 119 59 174 50 265 -43 80 -82 141 -115 256 -137 74
-15 96 -15 157 -5 177 32 373 197 339 285 -10 28 -38 46 -70 46 -13 0 -46 -25
-86 -66 -88 -90 -152 -119 -259 -119 -106 1 -161 26 -240 109 -153 160 -318
154 -559 -19 -60 -43 -81 -53 -87 -43 -20 31 -92 226 -123 335 -35 120 -69
316 -81 456 l-6 77 210 0 209 0 193 -140 c320 -230 336 -240 380 -240 52 0 95
23 119 63 17 27 20 51 20 159 0 161 -2 158 128 158 53 0 114 5 134 10 57 16
119 69 150 129 28 53 28 55 28 243 0 104 3 188 8 186 60 -31 133 -60 184 -75
85 -23 243 -23 323 1 231 69 405 257 447 486 5 30 12 61 14 68 5 19 138 16
158 -4z m1133 -26 c141 -198 162 -468 53 -690 -52 -106 -49 -104 -112 -71
l-53 28 -312 3 c-286 3 -313 5 -313 20 1 36 40 101 103 172 70 77 135 189 161
279 9 29 21 104 27 165 8 78 16 115 27 124 11 8 68 12 202 12 l187 0 30 -42z
m-126 -894 c60 -30 59 -23 59 -710 0 -695 2 -677 -65 -708 -28 -14 -85 -16
-385 -16 -298 0 -356 -2 -381 -16 -17 -8 -133 -89 -259 -180 -125 -90 -231
-164 -234 -164 -3 0 -6 50 -6 110 0 89 -4 118 -19 148 -41 79 -89 102 -221
102 -64 0 -113 5 -135 14 -67 28 -65 5 -65 711 0 548 2 640 15 665 32 62 -6
59 868 60 705 0 802 -2 828 -16z"/>
<path d="M3749 4801 c-27 -27 -29 -35 -29 -105 l0 -76 -208 0 c-205 0 -209 0
-230 -23 -29 -31 -28 -72 3 -102 22 -23 32 -25 114 -25 l89 0 21 -70 c30 -97
80 -202 135 -284 25 -38 46 -72 46 -76 0 -19 -147 -118 -250 -168 -142 -69
-150 -75 -150 -123 0 -47 39 -84 82 -75 77 15 277 129 401 228 l27 22 28 -22
c125 -100 358 -232 410 -232 11 0 31 9 46 21 20 16 26 29 26 58 0 48 -9 56
-145 120 -100 47 -255 150 -255 169 0 5 24 45 54 91 52 79 111 210 135 299
l12 42 90 0 c82 0 92 2 114 25 30 30 32 64 4 99 l-20 26 -210 0 -209 0 0 76
c0 70 -2 78 -29 105 -16 16 -39 29 -51 29 -12 0 -35 -13 -51 -29z m196 -353
c-32 -106 -121 -273 -146 -273 -24 0 -109 163 -143 273 l-7 22 151 0 151 0 -6
-22z"/>
<path d="M2896 2166 c-33 -32 -33 -70 -1 -101 23 -24 29 -25 161 -25 153 0
182 -9 209 -66 21 -44 19 -75 -8 -115 -32 -48 -71 -58 -229 -58 -124 -1 -140
-3 -158 -21 -11 -11 -20 -33 -20 -50 0 -17 9 -39 20 -50 18 -18 34 -20 158
-21 158 0 197 -10 229 -58 27 -40 29 -71 8 -115 -26 -55 -64 -70 -164 -63 -99
6 -157 26 -221 74 -59 45 -85 51 -118 26 -129 -96 158 -270 410 -250 81 7 131
31 185 90 69 75 84 156 52 277 -3 13 18 15 144 18 l147 3 0 -171 c0 -168 0
-171 25 -195 31 -32 69 -32 100 0 l25 24 0 361 0 360 59 0 c44 0 65 5 85 21
36 28 36 80 0 108 -25 20 -40 21 -219 21 -179 0 -194 -1 -219 -21 -19 -15 -26
-30 -26 -54 0 -50 37 -75 111 -75 l59 0 0 -120 0 -120 -151 0 c-140 0 -151 1
-144 18 41 93 22 203 -48 279 -72 78 -99 87 -279 91 l-157 4 -25 -26z"/>
<path d="M971 3693 c-13 -12 -81 -178 -196 -483 -96 -256 -175 -470 -175 -476
0 -6 9 -23 21 -38 27 -34 77 -36 107 -3 12 13 22 26 22 29 0 4 14 43 31 87
l31 81 220 -2 221 -3 34 -90 c19 -49 42 -98 50 -107 36 -40 123 -7 123 46 0
39 -349 940 -371 959 -12 9 -38 17 -59 17 -21 0 -47 -8 -59 -17z m142 -440
c43 -115 78 -211 77 -215 0 -10 -320 -10 -320 0 0 13 155 422 160 422 3 0 40
-93 83 -207z"/>
</g>
</svg>
